<?xml version="1.0" encoding="UTF-8" standalone="no"?>
<!DOCTYPE svg PUBLIC "-//W3C//DTD SVG 1.1//EN"
 "http://www.w3.org/Graphics/SVG/1.1/DTD/svg11.dtd">
<!-- Generated by graphviz version 2.47.0 (20210316.0004)
 -->
<!-- Title: dependencies Pages: 1 -->
<svg width="1686pt" height="290pt"
 viewBox="0.00 0.00 1686.00 290.00" xmlns="http://www.w3.org/2000/svg" xmlns:xlink="http://www.w3.org/1999/xlink">
<g id="graph0" class="graph" transform="scale(1 1) rotate(0) translate(4 286)">
<title>dependencies</title>
<polygon fill="white" stroke="transparent" points="-4,4 -4,-286 1682,-286 1682,4 -4,4"/>
<text text-anchor="start" x="818.01" y="-42.4" font-family="Times-12" font-weight="bold" font-size="14.00">Legend</text>
<polygon fill="#ffffb3" stroke="transparent" points="605,-10 605,-30 625,-30 625,-10 605,-10"/>
<text text-anchor="start" x="628.63" y="-15.4" font-family="Times-12" font-size="14.00"> &#160;Declarations</text>
<polygon fill="#8dd3c7" stroke="transparent" points="718,-10 718,-30 738,-30 738,-10 718,-10"/>
<text text-anchor="start" x="741.73" y="-15.4" font-family="Times-12" font-size="14.00"> &#160;Module</text>
<polygon fill="#80b1d3" stroke="transparent" points="804,-10 804,-30 824,-30 824,-10 804,-10"/>
<text text-anchor="start" x="827.78" y="-15.4" font-family="Times-12" font-size="14.00"> &#160;Bootstrap</text>
<polygon fill="#fdb462" stroke="transparent" points="901,-10 901,-30 921,-30 921,-10 901,-10"/>
<text text-anchor="start" x="924.67" y="-15.4" font-family="Times-12" font-size="14.00"> &#160;Providers</text>
<polygon fill="#fb8072" stroke="transparent" points="997,-10 997,-30 1017,-30 1017,-10 997,-10"/>
<text text-anchor="start" x="1020.73" y="-15.4" font-family="Times-12" font-size="14.00"> &#160;Exports</text>
<g id="clust1" class="cluster">
<title>cluster_AppModule</title>
<polygon fill="none" stroke="black" stroke-dasharray="1,5" points="8,-70 8,-274 860,-274 860,-70 8,-70"/>
</g>
<g id="clust2" class="cluster">
<title>cluster_AppModule_declarations</title>
<polygon fill="none" stroke="black" points="174,-78 174,-130 429,-130 429,-78 174,-78"/>
</g>
<g id="clust5" class="cluster">
<title>cluster_AppModule_imports</title>
<polygon fill="none" stroke="black" points="437,-78 437,-130 852,-130 852,-78 437,-78"/>
</g>
<g id="clust7" class="cluster">
<title>cluster_AppModule_bootstrap</title>
<polygon fill="none" stroke="black" points="376,-214 376,-266 500,-266 500,-214 376,-214"/>
</g>
<g id="clust8" class="cluster">
<title>cluster_AppModule_providers</title>
<polygon fill="none" stroke="black" points="16,-78 16,-130 166,-130 166,-78 16,-78"/>
</g>
<g id="clust15" class="cluster">
<title>cluster_MaterialModule</title>
<polygon fill="none" stroke="black" stroke-dasharray="1,5" points="868,-138 868,-206 1670,-206 1670,-138 868,-138"/>
</g>
<g id="clust17" class="cluster">
<title>cluster_MaterialModule_imports</title>
<polygon fill="none" stroke="black" points="1280,-146 1280,-198 1662,-198 1662,-146 1280,-146"/>
</g>
<g id="clust18" class="cluster">
<title>cluster_MaterialModule_exports</title>
<polygon fill="none" stroke="black" points="876,-146 876,-198 1272,-198 1272,-146 876,-146"/>
</g>
<!-- AppComponent -->
<g id="node1" class="node">
<title>AppComponent</title>
<polygon fill="#ffffb3" stroke="black" points="420.94,-122 315.06,-122 315.06,-86 420.94,-86 420.94,-122"/>
<text text-anchor="middle" x="368" y="-99.8" font-family="Times,serif" font-size="14.00">AppComponent</text>
</g>
<!-- AppModule -->
<g id="node3" class="node">
<title>AppModule</title>
<polygon fill="#8dd3c7" stroke="black" points="479.66,-190 476.66,-194 455.66,-194 452.66,-190 396.34,-190 396.34,-154 479.66,-154 479.66,-190"/>
<text text-anchor="middle" x="438" y="-167.8" font-family="Times,serif" font-size="14.00">AppModule</text>
</g>
<!-- AppComponent&#45;&gt;AppModule -->
<g id="edge1" class="edge">
<title>AppComponent&#45;&gt;AppModule</title>
<path fill="none" stroke="black" d="M408.45,-122.22C408.45,-122.22 408.45,-143.73 408.45,-143.73"/>
<polygon fill="black" stroke="black" points="404.95,-143.73 408.45,-153.73 411.95,-143.73 404.95,-143.73"/>
</g>
<!-- HomeComponent -->
<g id="node2" class="node">
<title>HomeComponent</title>
<polygon fill="#ffffb3" stroke="black" points="297.55,-122 182.45,-122 182.45,-86 297.55,-86 297.55,-122"/>
<text text-anchor="middle" x="240" y="-99.8" font-family="Times,serif" font-size="14.00">HomeComponent</text>
</g>
<!-- HomeComponent&#45;&gt;AppModule -->
<g id="edge2" class="edge">
<title>HomeComponent&#45;&gt;AppModule</title>
<path fill="none" stroke="black" d="M240,-122.27C240,-140.56 240,-166 240,-166 240,-166 386.01,-166 386.01,-166"/>
<polygon fill="black" stroke="black" points="386.01,-169.5 396.01,-166 386.01,-162.5 386.01,-169.5"/>
</g>
<!-- AppComponent  -->
<g id="node7" class="node">
<title>AppComponent </title>
<polygon fill="#80b1d3" stroke="black" points="492.44,-258 383.56,-258 383.56,-222 492.44,-222 492.44,-258"/>
<text text-anchor="middle" x="438" y="-235.8" font-family="Times,serif" font-size="14.00">AppComponent </text>
</g>
<!-- AppModule&#45;&gt;AppComponent  -->
<g id="edge6" class="edge">
<title>AppModule&#45;&gt;AppComponent </title>
<path fill="none" stroke="black" stroke-dasharray="1,5" d="M438,-190.22C438,-190.22 438,-211.73 438,-211.73"/>
<polygon fill="black" stroke="black" points="434.5,-211.73 438,-221.73 441.5,-211.73 434.5,-211.73"/>
</g>
<!-- AppRoutingModule -->
<g id="node4" class="node">
<title>AppRoutingModule</title>
<polygon fill="#8dd3c7" stroke="black" points="719.27,-122 716.27,-126 695.27,-126 692.27,-122 590.73,-122 590.73,-86 719.27,-86 719.27,-122"/>
<text text-anchor="middle" x="655" y="-99.8" font-family="Times,serif" font-size="14.00">AppRoutingModule</text>
</g>
<!-- AppRoutingModule&#45;&gt;AppModule -->
<g id="edge3" class="edge">
<title>AppRoutingModule&#45;&gt;AppModule</title>
<path fill="none" stroke="black" d="M655,-122.27C655,-140.56 655,-166 655,-166 655,-166 489.84,-166 489.84,-166"/>
<polygon fill="black" stroke="black" points="489.84,-162.5 479.84,-166 489.84,-169.5 489.84,-162.5"/>
</g>
<!-- MaterialModule -->
<g id="node5" class="node">
<title>MaterialModule</title>
<polygon fill="#8dd3c7" stroke="black" points="844.47,-122 841.47,-126 820.47,-126 817.47,-122 737.53,-122 737.53,-86 844.47,-86 844.47,-122"/>
<text text-anchor="middle" x="791" y="-99.8" font-family="Times,serif" font-size="14.00">MaterialModule</text>
</g>
<!-- MaterialModule&#45;&gt;AppModule -->
<g id="edge4" class="edge">
<title>MaterialModule&#45;&gt;AppModule</title>
<path fill="none" stroke="black" d="M791,-122.29C791,-144.21 791,-178 791,-178 791,-178 489.88,-178 489.88,-178"/>
<polygon fill="black" stroke="black" points="489.88,-174.5 479.88,-178 489.88,-181.5 489.88,-174.5"/>
</g>
<!-- MatFormField  -->
<g id="node13" class="node">
<title>MatFormField </title>
<polygon fill="#fb8072" stroke="black" points="1263.66,-190 1162.34,-190 1162.34,-154 1263.66,-154 1263.66,-190"/>
<text text-anchor="middle" x="1213" y="-167.8" font-family="Times,serif" font-size="14.00">MatFormField </text>
</g>
<!-- MaterialModule&#45;&gt;MatFormField  -->
<g id="edge12" class="edge">
<title>MaterialModule&#45;&gt;MatFormField </title>
<path fill="none" stroke="black" stroke-dasharray="5,2" d="M844.88,-106C958.64,-106 1213,-106 1213,-106 1213,-106 1213,-143.97 1213,-143.97"/>
<polygon fill="black" stroke="black" points="1209.5,-143.97 1213,-153.97 1216.5,-143.97 1209.5,-143.97"/>
</g>
<!-- MatIcon  -->
<g id="node14" class="node">
<title>MatIcon </title>
<polygon fill="#fb8072" stroke="black" points="1144.43,-190 1077.57,-190 1077.57,-154 1144.43,-154 1144.43,-190"/>
<text text-anchor="middle" x="1111" y="-167.8" font-family="Times,serif" font-size="14.00">MatIcon </text>
</g>
<!-- MaterialModule&#45;&gt;MatIcon  -->
<g id="edge13" class="edge">
<title>MaterialModule&#45;&gt;MatIcon </title>
<path fill="none" stroke="black" stroke-dasharray="5,2" d="M844.56,-110C935.66,-110 1111,-110 1111,-110 1111,-110 1111,-143.73 1111,-143.73"/>
<polygon fill="black" stroke="black" points="1107.5,-143.73 1111,-153.73 1114.5,-143.73 1107.5,-143.73"/>
</g>
<!-- MatInput  -->
<g id="node15" class="node">
<title>MatInput </title>
<polygon fill="#fb8072" stroke="black" points="1059.6,-190 988.4,-190 988.4,-154 1059.6,-154 1059.6,-190"/>
<text text-anchor="middle" x="1024" y="-167.8" font-family="Times,serif" font-size="14.00">MatInput </text>
</g>
<!-- MaterialModule&#45;&gt;MatInput  -->
<g id="edge14" class="edge">
<title>MaterialModule&#45;&gt;MatInput </title>
<path fill="none" stroke="black" stroke-dasharray="5,2" d="M844.75,-114C913.56,-114 1024,-114 1024,-114 1024,-114 1024,-143.97 1024,-143.97"/>
<polygon fill="black" stroke="black" points="1020.5,-143.97 1024,-153.97 1027.5,-143.97 1020.5,-143.97"/>
</g>
<!-- MatToolbar  -->
<g id="node16" class="node">
<title>MatToolbar </title>
<polygon fill="#fb8072" stroke="black" points="970.37,-190 883.63,-190 883.63,-154 970.37,-154 970.37,-190"/>
<text text-anchor="middle" x="927" y="-167.8" font-family="Times,serif" font-size="14.00">MatToolbar </text>
</g>
<!-- MaterialModule&#45;&gt;MatToolbar  -->
<g id="edge15" class="edge">
<title>MaterialModule&#45;&gt;MatToolbar </title>
<path fill="none" stroke="black" stroke-dasharray="5,2" d="M844.75,-118C882.77,-118 927,-118 927,-118 927,-118 927,-143.72 927,-143.72"/>
<polygon fill="black" stroke="black" points="923.5,-143.72 927,-153.72 930.5,-143.72 923.5,-143.72"/>
</g>
<!-- NgOptimizedImage -->
<g id="node6" class="node">
<title>NgOptimizedImage</title>
<polygon fill="#8dd3c7" stroke="black" points="572.69,-122 569.69,-126 548.69,-126 545.69,-122 445.31,-122 445.31,-86 572.69,-86 572.69,-122"/>
<text text-anchor="middle" x="509" y="-99.8" font-family="Times,serif" font-size="14.00">NgOptimizedImage</text>
</g>
<!-- NgOptimizedImage&#45;&gt;AppModule -->
<g id="edge5" class="edge">
<title>NgOptimizedImage&#45;&gt;AppModule</title>
<path fill="none" stroke="black" d="M462.62,-122.22C462.62,-122.22 462.62,-143.73 462.62,-143.73"/>
<polygon fill="black" stroke="black" points="459.12,-143.73 462.62,-153.73 466.12,-143.73 459.12,-143.73"/>
</g>
<!-- JwtInterceptor -->
<g id="node8" class="node">
<title>JwtInterceptor</title>
<ellipse fill="#fdb462" stroke="black" cx="91" cy="-104" rx="66.61" ry="18"/>
<text text-anchor="middle" x="91" y="-99.8" font-family="Times,serif" font-size="14.00">JwtInterceptor</text>
</g>
<!-- JwtInterceptor&#45;&gt;AppModule -->
<g id="edge7" class="edge">
<title>JwtInterceptor&#45;&gt;AppModule</title>
<path fill="none" stroke="black" d="M91,-122.29C91,-144.21 91,-178 91,-178 91,-178 386.14,-178 386.14,-178"/>
<polygon fill="black" stroke="black" points="386.14,-181.5 396.14,-178 386.14,-174.5 386.14,-181.5"/>
</g>
<!-- MatFormField -->
<g id="node9" class="node">
<title>MatFormField</title>
<polygon fill="#8dd3c7" stroke="black" points="1653.66,-190 1650.66,-194 1629.66,-194 1626.66,-190 1556.34,-190 1556.34,-154 1653.66,-154 1653.66,-190"/>
<text text-anchor="middle" x="1605" y="-167.8" font-family="Times,serif" font-size="14.00">MatFormField</text>
</g>
<!-- MatFormField&#45;&gt;MaterialModule -->
<g id="edge8" class="edge">
<title>MatFormField&#45;&gt;MaterialModule</title>
<path fill="none" stroke="black" d="M1605,-153.8C1605,-129.64 1605,-90 1605,-90 1605,-90 854.72,-90 854.72,-90"/>
<polygon fill="black" stroke="black" points="854.72,-86.5 844.72,-90 854.72,-93.5 854.72,-86.5"/>
</g>
<!-- MatIcon -->
<g id="node10" class="node">
<title>MatIcon</title>
<polygon fill="#8dd3c7" stroke="black" points="1537.93,-190 1534.93,-194 1513.93,-194 1510.93,-190 1474.07,-190 1474.07,-154 1537.93,-154 1537.93,-190"/>
<text text-anchor="middle" x="1506" y="-167.8" font-family="Times,serif" font-size="14.00">MatIcon</text>
</g>
<!-- MatIcon&#45;&gt;MaterialModule -->
<g id="edge9" class="edge">
<title>MatIcon&#45;&gt;MaterialModule</title>
<path fill="none" stroke="black" d="M1506,-153.91C1506,-130.87 1506,-94 1506,-94 1506,-94 854.74,-94 854.74,-94"/>
<polygon fill="black" stroke="black" points="854.74,-90.5 844.74,-94 854.74,-97.5 854.74,-90.5"/>
</g>
<!-- MatInput -->
<g id="node11" class="node">
<title>MatInput</title>
<polygon fill="#8dd3c7" stroke="black" points="1456.1,-190 1453.1,-194 1432.1,-194 1429.1,-190 1387.9,-190 1387.9,-154 1456.1,-154 1456.1,-190"/>
<text text-anchor="middle" x="1422" y="-167.8" font-family="Times,serif" font-size="14.00">MatInput</text>
</g>
<!-- MatInput&#45;&gt;MaterialModule -->
<g id="edge10" class="edge">
<title>MatInput&#45;&gt;MaterialModule</title>
<path fill="none" stroke="black" d="M1422,-153.71C1422,-131.79 1422,-98 1422,-98 1422,-98 854.53,-98 854.53,-98"/>
<polygon fill="black" stroke="black" points="854.53,-94.5 844.53,-98 854.53,-101.5 854.53,-94.5"/>
</g>
<!-- MatToolbar -->
<g id="node12" class="node">
<title>MatToolbar</title>
<polygon fill="#8dd3c7" stroke="black" points="1370.37,-190 1367.37,-194 1346.37,-194 1343.37,-190 1287.63,-190 1287.63,-154 1370.37,-154 1370.37,-190"/>
<text text-anchor="middle" x="1329" y="-167.8" font-family="Times,serif" font-size="14.00">MatToolbar</text>
</g>
<!-- MatToolbar&#45;&gt;MaterialModule -->
<g id="edge11" class="edge">
<title>MatToolbar&#45;&gt;MaterialModule</title>
<path fill="none" stroke="black" d="M1329,-153.97C1329,-133.23 1329,-102 1329,-102 1329,-102 854.55,-102 854.55,-102"/>
<polygon fill="black" stroke="black" points="854.55,-98.5 844.55,-102 854.55,-105.5 854.55,-98.5"/>
</g>
</g>
</svg>
