<?xml version="1.0" encoding="UTF-8" standalone="no"?>
<!DOCTYPE svg PUBLIC "-//W3C//DTD SVG 1.1//EN"
 "http://www.w3.org/Graphics/SVG/1.1/DTD/svg11.dtd">
<!-- Generated by graphviz version 2.47.0 (20210316.0004)
 -->
<!-- Title: dependencies Pages: 1 -->
<svg width="876pt" height="284pt"
 viewBox="0.00 0.00 876.00 284.00" xmlns="http://www.w3.org/2000/svg" xmlns:xlink="http://www.w3.org/1999/xlink">
<g id="graph0" class="graph" transform="scale(1 1) rotate(0) translate(4 280)">
<title>dependencies</title>
<polygon fill="white" stroke="transparent" points="-4,4 -4,-280 872,-280 872,4 -4,4"/>
<text text-anchor="start" x="413.01" y="-42.4" font-family="Times-12" font-weight="bold" font-size="14.00">Legend</text>
<polygon fill="#ffffb3" stroke="transparent" points="200,-10 200,-30 220,-30 220,-10 200,-10"/>
<text text-anchor="start" x="223.63" y="-15.4" font-family="Times-12" font-size="14.00"> &#160;Declarations</text>
<polygon fill="#8dd3c7" stroke="transparent" points="313,-10 313,-30 333,-30 333,-10 313,-10"/>
<text text-anchor="start" x="336.73" y="-15.4" font-family="Times-12" font-size="14.00"> &#160;Module</text>
<polygon fill="#80b1d3" stroke="transparent" points="399,-10 399,-30 419,-30 419,-10 399,-10"/>
<text text-anchor="start" x="422.78" y="-15.4" font-family="Times-12" font-size="14.00"> &#160;Bootstrap</text>
<polygon fill="#fdb462" stroke="transparent" points="496,-10 496,-30 516,-30 516,-10 496,-10"/>
<text text-anchor="start" x="519.67" y="-15.4" font-family="Times-12" font-size="14.00"> &#160;Providers</text>
<polygon fill="#fb8072" stroke="transparent" points="592,-10 592,-30 612,-30 612,-10 592,-10"/>
<text text-anchor="start" x="615.73" y="-15.4" font-family="Times-12" font-size="14.00"> &#160;Exports</text>
<g id="clust1" class="cluster">
<title>cluster_AppModule</title>
<polygon fill="none" stroke="black" stroke-dasharray="1,5" points="8,-70 8,-268 860,-268 860,-70 8,-70"/>
</g>
<g id="clust5" class="cluster">
<title>cluster_AppModule_imports</title>
<polygon fill="none" stroke="black" points="437,-78 437,-130 852,-130 852,-78 437,-78"/>
</g>
<g id="clust2" class="cluster">
<title>cluster_AppModule_declarations</title>
<polygon fill="none" stroke="black" points="174,-78 174,-130 429,-130 429,-78 174,-78"/>
</g>
<g id="clust8" class="cluster">
<title>cluster_AppModule_providers</title>
<polygon fill="none" stroke="black" points="16,-78 16,-130 166,-130 166,-78 16,-78"/>
</g>
<g id="clust7" class="cluster">
<title>cluster_AppModule_bootstrap</title>
<polygon fill="none" stroke="black" points="376,-208 376,-260 500,-260 500,-208 376,-208"/>
</g>
<!-- AppComponent -->
<g id="node1" class="node">
<title>AppComponent</title>
<polygon fill="#ffffb3" stroke="black" points="420.94,-122 315.06,-122 315.06,-86 420.94,-86 420.94,-122"/>
<text text-anchor="middle" x="368" y="-99.8" font-family="Times,serif" font-size="14.00">AppComponent</text>
</g>
<!-- AppModule -->
<g id="node3" class="node">
<title>AppModule</title>
<polygon fill="#8dd3c7" stroke="black" points="479.66,-187 476.66,-191 455.66,-191 452.66,-187 396.34,-187 396.34,-151 479.66,-151 479.66,-187"/>
<text text-anchor="middle" x="438" y="-164.8" font-family="Times,serif" font-size="14.00">AppModule</text>
</g>
<!-- AppComponent&#45;&gt;AppModule -->
<g id="edge1" class="edge">
<title>AppComponent&#45;&gt;AppModule</title>
<path fill="none" stroke="black" d="M408.45,-122.11C408.45,-122.11 408.45,-140.99 408.45,-140.99"/>
<polygon fill="black" stroke="black" points="404.95,-140.99 408.45,-150.99 411.95,-140.99 404.95,-140.99"/>
</g>
<!-- HomeComponent -->
<g id="node2" class="node">
<title>HomeComponent</title>
<polygon fill="#ffffb3" stroke="black" points="297.55,-122 182.45,-122 182.45,-86 297.55,-86 297.55,-122"/>
<text text-anchor="middle" x="240" y="-99.8" font-family="Times,serif" font-size="14.00">HomeComponent</text>
</g>
<!-- HomeComponent&#45;&gt;AppModule -->
<g id="edge2" class="edge">
<title>HomeComponent&#45;&gt;AppModule</title>
<path fill="none" stroke="black" d="M240,-122.02C240,-139.37 240,-163 240,-163 240,-163 386.01,-163 386.01,-163"/>
<polygon fill="black" stroke="black" points="386.01,-166.5 396.01,-163 386.01,-159.5 386.01,-166.5"/>
</g>
<!-- AppComponent  -->
<g id="node7" class="node">
<title>AppComponent </title>
<polygon fill="#80b1d3" stroke="black" points="492.44,-252 383.56,-252 383.56,-216 492.44,-216 492.44,-252"/>
<text text-anchor="middle" x="438" y="-229.8" font-family="Times,serif" font-size="14.00">AppComponent </text>
</g>
<!-- AppModule&#45;&gt;AppComponent  -->
<g id="edge6" class="edge">
<title>AppModule&#45;&gt;AppComponent </title>
<path fill="none" stroke="black" stroke-dasharray="1,5" d="M438,-187.11C438,-187.11 438,-205.99 438,-205.99"/>
<polygon fill="black" stroke="black" points="434.5,-205.99 438,-215.99 441.5,-205.99 434.5,-205.99"/>
</g>
<!-- AppRoutingModule -->
<g id="node4" class="node">
<title>AppRoutingModule</title>
<polygon fill="#8dd3c7" stroke="black" points="844.27,-122 841.27,-126 820.27,-126 817.27,-122 715.73,-122 715.73,-86 844.27,-86 844.27,-122"/>
<text text-anchor="middle" x="780" y="-99.8" font-family="Times,serif" font-size="14.00">AppRoutingModule</text>
</g>
<!-- AppRoutingModule&#45;&gt;AppModule -->
<g id="edge3" class="edge">
<title>AppRoutingModule&#45;&gt;AppModule</title>
<path fill="none" stroke="black" d="M780,-122.28C780,-143.32 780,-175 780,-175 780,-175 489.94,-175 489.94,-175"/>
<polygon fill="black" stroke="black" points="489.94,-171.5 479.94,-175 489.94,-178.5 489.94,-171.5"/>
</g>
<!-- MaterialModule -->
<g id="node5" class="node">
<title>MaterialModule</title>
<polygon fill="#8dd3c7" stroke="black" points="697.47,-122 694.47,-126 673.47,-126 670.47,-122 590.53,-122 590.53,-86 697.47,-86 697.47,-122"/>
<text text-anchor="middle" x="644" y="-99.8" font-family="Times,serif" font-size="14.00">MaterialModule</text>
</g>
<!-- MaterialModule&#45;&gt;AppModule -->
<g id="edge4" class="edge">
<title>MaterialModule&#45;&gt;AppModule</title>
<path fill="none" stroke="black" d="M644,-122.02C644,-139.37 644,-163 644,-163 644,-163 489.69,-163 489.69,-163"/>
<polygon fill="black" stroke="black" points="489.69,-159.5 479.69,-163 489.69,-166.5 489.69,-159.5"/>
</g>
<!-- NgOptimizedImage -->
<g id="node6" class="node">
<title>NgOptimizedImage</title>
<polygon fill="#8dd3c7" stroke="black" points="572.69,-122 569.69,-126 548.69,-126 545.69,-122 445.31,-122 445.31,-86 572.69,-86 572.69,-122"/>
<text text-anchor="middle" x="509" y="-99.8" font-family="Times,serif" font-size="14.00">NgOptimizedImage</text>
</g>
<!-- NgOptimizedImage&#45;&gt;AppModule -->
<g id="edge5" class="edge">
<title>NgOptimizedImage&#45;&gt;AppModule</title>
<path fill="none" stroke="black" d="M462.62,-122.11C462.62,-122.11 462.62,-140.99 462.62,-140.99"/>
<polygon fill="black" stroke="black" points="459.12,-140.99 462.62,-150.99 466.12,-140.99 459.12,-140.99"/>
</g>
<!-- JwtInterceptor -->
<g id="node8" class="node">
<title>JwtInterceptor</title>
<ellipse fill="#fdb462" stroke="black" cx="91" cy="-104" rx="66.61" ry="18"/>
<text text-anchor="middle" x="91" y="-99.8" font-family="Times,serif" font-size="14.00">JwtInterceptor</text>
</g>
<!-- JwtInterceptor&#45;&gt;AppModule -->
<g id="edge7" class="edge">
<title>JwtInterceptor&#45;&gt;AppModule</title>
<path fill="none" stroke="black" d="M91,-122.28C91,-143.32 91,-175 91,-175 91,-175 386.14,-175 386.14,-175"/>
<polygon fill="black" stroke="black" points="386.14,-178.5 396.14,-175 386.14,-171.5 386.14,-178.5"/>
</g>
</g>
</svg>
