<?xml version="1.0" encoding="UTF-8" standalone="no"?>
<!DOCTYPE svg PUBLIC "-//W3C//DTD SVG 1.1//EN"
 "http://www.w3.org/Graphics/SVG/1.1/DTD/svg11.dtd">
<!-- Generated by graphviz version 2.47.0 (20210316.0004)
 -->
<!-- Title: dependencies Pages: 1 -->
<svg width="504pt" height="284pt"
 viewBox="0.00 0.00 504.00 284.00" xmlns="http://www.w3.org/2000/svg" xmlns:xlink="http://www.w3.org/1999/xlink">
<g id="graph0" class="graph" transform="scale(1 1) rotate(0) translate(4 280)">
<title>dependencies</title>
<polygon fill="white" stroke="transparent" points="-4,4 -4,-280 500,-280 500,4 -4,4"/>
<text text-anchor="start" x="227.01" y="-42.4" font-family="Times-12" font-weight="bold" font-size="14.00">Legend</text>
<polygon fill="#ffffb3" stroke="transparent" points="14,-10 14,-30 34,-30 34,-10 14,-10"/>
<text text-anchor="start" x="37.63" y="-15.4" font-family="Times-12" font-size="14.00"> &#160;Declarations</text>
<polygon fill="#8dd3c7" stroke="transparent" points="127,-10 127,-30 147,-30 147,-10 127,-10"/>
<text text-anchor="start" x="150.73" y="-15.4" font-family="Times-12" font-size="14.00"> &#160;Module</text>
<polygon fill="#80b1d3" stroke="transparent" points="213,-10 213,-30 233,-30 233,-10 213,-10"/>
<text text-anchor="start" x="236.78" y="-15.4" font-family="Times-12" font-size="14.00"> &#160;Bootstrap</text>
<polygon fill="#fdb462" stroke="transparent" points="310,-10 310,-30 330,-30 330,-10 310,-10"/>
<text text-anchor="start" x="333.67" y="-15.4" font-family="Times-12" font-size="14.00"> &#160;Providers</text>
<polygon fill="#fb8072" stroke="transparent" points="406,-10 406,-30 426,-30 426,-10 406,-10"/>
<text text-anchor="start" x="429.73" y="-15.4" font-family="Times-12" font-size="14.00"> &#160;Exports</text>
<g id="clust1" class="cluster">
<title>cluster_MaterialModule</title>
<polygon fill="none" stroke="black" stroke-dasharray="1,5" points="42,-70 42,-268 454,-268 454,-70 42,-70"/>
</g>
<g id="clust3" class="cluster">
<title>cluster_MaterialModule_imports</title>
<polygon fill="none" stroke="black" points="58,-78 58,-130 440,-130 440,-78 58,-78"/>
</g>
<g id="clust4" class="cluster">
<title>cluster_MaterialModule_exports</title>
<polygon fill="none" stroke="black" points="50,-208 50,-260 446,-260 446,-208 50,-208"/>
</g>
<!-- MatFormField -->
<g id="node1" class="node">
<title>MatFormField</title>
<polygon fill="#8dd3c7" stroke="black" points="431.66,-122 428.66,-126 407.66,-126 404.66,-122 334.34,-122 334.34,-86 431.66,-86 431.66,-122"/>
<text text-anchor="middle" x="383" y="-99.8" font-family="Times,serif" font-size="14.00">MatFormField</text>
</g>
<!-- MaterialModule -->
<g id="node5" class="node">
<title>MaterialModule</title>
<polygon fill="#8dd3c7" stroke="black" points="256.47,-187 253.47,-191 232.47,-191 229.47,-187 149.53,-187 149.53,-151 256.47,-151 256.47,-187"/>
<text text-anchor="middle" x="203" y="-164.8" font-family="Times,serif" font-size="14.00">MaterialModule</text>
</g>
<!-- MatFormField&#45;&gt;MaterialModule -->
<g id="edge1" class="edge">
<title>MatFormField&#45;&gt;MaterialModule</title>
<path fill="none" stroke="black" d="M400.03,-122.02C400.03,-139.37 400.03,-163 400.03,-163 400.03,-163 266.58,-163 266.58,-163"/>
<polygon fill="black" stroke="black" points="266.58,-159.5 256.58,-163 266.58,-166.5 266.58,-159.5"/>
</g>
<!-- MatIcon -->
<g id="node2" class="node">
<title>MatIcon</title>
<polygon fill="#8dd3c7" stroke="black" points="315.93,-122 312.93,-126 291.93,-126 288.93,-122 252.07,-122 252.07,-86 315.93,-86 315.93,-122"/>
<text text-anchor="middle" x="284" y="-99.8" font-family="Times,serif" font-size="14.00">MatIcon</text>
</g>
<!-- MatIcon&#45;&gt;MaterialModule -->
<g id="edge2" class="edge">
<title>MatIcon&#45;&gt;MaterialModule</title>
<path fill="none" stroke="black" d="M252.23,-104C246.96,-104 243.17,-104 243.17,-104 243.17,-104 243.17,-140.89 243.17,-140.89"/>
<polygon fill="black" stroke="black" points="239.67,-140.89 243.17,-150.89 246.67,-140.89 239.67,-140.89"/>
</g>
<!-- MatInput -->
<g id="node3" class="node">
<title>MatInput</title>
<polygon fill="#8dd3c7" stroke="black" points="234.1,-122 231.1,-126 210.1,-126 207.1,-122 165.9,-122 165.9,-86 234.1,-86 234.1,-122"/>
<text text-anchor="middle" x="200" y="-99.8" font-family="Times,serif" font-size="14.00">MatInput</text>
</g>
<!-- MatInput&#45;&gt;MaterialModule -->
<g id="edge3" class="edge">
<title>MatInput&#45;&gt;MaterialModule</title>
<path fill="none" stroke="black" d="M200,-122.11C200,-122.11 200,-140.99 200,-140.99"/>
<polygon fill="black" stroke="black" points="196.5,-140.99 200,-150.99 203.5,-140.99 196.5,-140.99"/>
</g>
<!-- MatToolbar -->
<g id="node4" class="node">
<title>MatToolbar</title>
<polygon fill="#8dd3c7" stroke="black" points="148.37,-122 145.37,-126 124.37,-126 121.37,-122 65.63,-122 65.63,-86 148.37,-86 148.37,-122"/>
<text text-anchor="middle" x="107" y="-99.8" font-family="Times,serif" font-size="14.00">MatToolbar</text>
</g>
<!-- MatToolbar&#45;&gt;MaterialModule -->
<g id="edge4" class="edge">
<title>MatToolbar&#45;&gt;MaterialModule</title>
<path fill="none" stroke="black" d="M148.43,-104C153.94,-104 157.73,-104 157.73,-104 157.73,-104 157.73,-140.89 157.73,-140.89"/>
<polygon fill="black" stroke="black" points="154.23,-140.89 157.73,-150.89 161.23,-140.89 154.23,-140.89"/>
</g>
<!-- MatFormField  -->
<g id="node6" class="node">
<title>MatFormField </title>
<polygon fill="#fb8072" stroke="black" points="437.66,-252 336.34,-252 336.34,-216 437.66,-216 437.66,-252"/>
<text text-anchor="middle" x="387" y="-229.8" font-family="Times,serif" font-size="14.00">MatFormField </text>
</g>
<!-- MaterialModule&#45;&gt;MatFormField  -->
<g id="edge5" class="edge">
<title>MaterialModule&#45;&gt;MatFormField </title>
<path fill="none" stroke="black" stroke-dasharray="5,2" d="M256.64,-175C304.89,-175 368.22,-175 368.22,-175 368.22,-175 368.22,-205.98 368.22,-205.98"/>
<polygon fill="black" stroke="black" points="364.72,-205.98 368.22,-215.98 371.72,-205.98 364.72,-205.98"/>
</g>
<!-- MatIcon  -->
<g id="node7" class="node">
<title>MatIcon </title>
<polygon fill="#fb8072" stroke="black" points="318.43,-252 251.57,-252 251.57,-216 318.43,-216 318.43,-252"/>
<text text-anchor="middle" x="285" y="-229.8" font-family="Times,serif" font-size="14.00">MatIcon </text>
</g>
<!-- MaterialModule&#45;&gt;MatIcon  -->
<g id="edge6" class="edge">
<title>MaterialModule&#45;&gt;MatIcon </title>
<path fill="none" stroke="black" stroke-dasharray="5,2" d="M242.67,-187.11C242.67,-206.34 242.67,-234 242.67,-234 242.67,-234 243.53,-234 243.53,-234"/>
<polygon fill="black" stroke="black" points="241.24,-237.5 251.24,-234 241.24,-230.5 241.24,-237.5"/>
</g>
<!-- MatInput  -->
<g id="node8" class="node">
<title>MatInput </title>
<polygon fill="#fb8072" stroke="black" points="233.6,-252 162.4,-252 162.4,-216 233.6,-216 233.6,-252"/>
<text text-anchor="middle" x="198" y="-229.8" font-family="Times,serif" font-size="14.00">MatInput </text>
</g>
<!-- MaterialModule&#45;&gt;MatInput  -->
<g id="edge7" class="edge">
<title>MaterialModule&#45;&gt;MatInput </title>
<path fill="none" stroke="black" stroke-dasharray="5,2" d="M198,-187.11C198,-187.11 198,-205.99 198,-205.99"/>
<polygon fill="black" stroke="black" points="194.5,-205.99 198,-215.99 201.5,-205.99 194.5,-205.99"/>
</g>
<!-- MatToolbar  -->
<g id="node9" class="node">
<title>MatToolbar </title>
<polygon fill="#fb8072" stroke="black" points="144.37,-252 57.63,-252 57.63,-216 144.37,-216 144.37,-252"/>
<text text-anchor="middle" x="101" y="-229.8" font-family="Times,serif" font-size="14.00">MatToolbar </text>
</g>
<!-- MaterialModule&#45;&gt;MatToolbar  -->
<g id="edge8" class="edge">
<title>MaterialModule&#45;&gt;MatToolbar </title>
<path fill="none" stroke="black" stroke-dasharray="5,2" d="M155.86,-187.11C155.86,-206.34 155.86,-234 155.86,-234 155.86,-234 154.22,-234 154.22,-234"/>
<polygon fill="black" stroke="black" points="154.22,-230.5 144.22,-234 154.22,-237.5 154.22,-230.5"/>
</g>
</g>
</svg>
